<svg width="48" height="48" viewBox="0 0 48 48" fill="none" xmlns="http://www.w3.org/2000/svg">
<rect width="48" height="48" rx="20" fill="#C7C7C7" fill-opacity="0.16"/>
<path d="M33.375 25.5C33.3733 26.9913 32.7801 28.421 31.7256 29.4756C30.6711 30.5301 29.2414 31.1233 27.75 31.125H19.5001C19.4006 31.125 19.3052 31.0855 19.2349 31.0152C19.1646 30.9448 19.1251 30.8495 19.1251 30.75C19.1251 30.6505 19.1646 30.5552 19.2349 30.4848C19.3052 30.4145 19.4006 30.375 19.5001 30.375H27.75C29.043 30.375 30.283 29.8614 31.1972 28.9471C32.1114 28.0329 32.625 26.7929 32.625 25.5C32.625 24.2071 32.1114 22.9671 31.1972 22.0528C30.283 21.1386 29.043 20.625 27.75 20.625H15.9057L19.7654 24.4847C19.8357 24.555 19.8753 24.6505 19.8753 24.75C19.8753 24.8495 19.8357 24.9449 19.7654 25.0153C19.695 25.0857 19.5996 25.1252 19.5001 25.1252C19.4005 25.1252 19.3051 25.0857 19.2347 25.0153L14.7347 20.5153C14.6999 20.4805 14.6722 20.4391 14.6533 20.3936C14.6345 20.3481 14.6248 20.2993 14.6248 20.25C14.6248 20.2007 14.6345 20.1519 14.6533 20.1064C14.6722 20.0609 14.6999 20.0195 14.7347 19.9847L19.2347 15.4847C19.3051 15.4143 19.4005 15.3748 19.5001 15.3748C19.5996 15.3748 19.695 15.4143 19.7654 15.4847C19.8357 15.555 19.8753 15.6505 19.8753 15.75C19.8753 15.8495 19.8357 15.9449 19.7654 16.0153L15.9057 19.875H27.75C29.2414 19.8767 30.6711 20.4699 31.7256 21.5244C32.7801 22.579 33.3733 24.0087 33.375 25.5Z" fill="black"/>
</svg>
