<svg width="48" height="48" viewBox="0 0 48 48" fill="none" xmlns="http://www.w3.org/2000/svg">
<rect width="48" height="48" rx="20" fill="#C7C7C7" fill-opacity="0.16"/>
<path d="M27.375 33C27.375 33.0995 27.3355 33.1948 27.2652 33.2652C27.1949 33.3355 27.0995 33.375 27 33.375H21C20.9006 33.375 20.8052 33.3355 20.7349 33.2652C20.6645 33.1948 20.625 33.0995 20.625 33C20.625 32.9006 20.6645 32.8052 20.7349 32.7348C20.8052 32.6645 20.9006 32.625 21 32.625H27C27.0995 32.625 27.1949 32.6645 27.2652 32.7348C27.3355 32.8052 27.375 32.9006 27.375 33ZM32.985 17.8275C32.1727 16.2389 30.9526 14.8949 29.4497 13.9331C29.4081 13.904 29.361 13.8836 29.3113 13.8731C29.2616 13.8627 29.2103 13.8625 29.1605 13.8725C29.1107 13.8826 29.0634 13.9026 29.0216 13.9314C28.9798 13.9602 28.9442 13.9973 28.9172 14.0402C28.8901 14.0832 28.872 14.1313 28.864 14.1814C28.8561 14.2316 28.8584 14.2829 28.8709 14.3321C28.8833 14.3814 28.9056 14.4276 28.9365 14.4679C28.9673 14.5083 29.0061 14.5419 29.0503 14.5669C30.4401 15.458 31.5683 16.7023 32.3194 18.1725C32.351 18.2335 32.3988 18.2847 32.4574 18.3204C32.5161 18.3561 32.5835 18.375 32.6522 18.375C32.7123 18.3752 32.7715 18.3607 32.8247 18.3328C32.913 18.287 32.9794 18.2081 33.0095 18.1133C33.0395 18.0186 33.0307 17.9158 32.985 17.8275ZM15.6806 18.1725C16.4317 16.7023 17.5599 15.458 18.9497 14.5669C19.0285 14.5116 19.0831 14.4282 19.1021 14.3338C19.121 14.2394 19.103 14.1414 19.0517 14.0599C19.0004 13.9785 18.9197 13.9199 18.8264 13.8963C18.733 13.8727 18.6342 13.8859 18.5503 13.9331C17.0475 14.8949 15.8274 16.2389 15.015 17.8275C14.9693 17.9158 14.9605 18.0186 14.9906 18.1133C15.0206 18.2081 15.0871 18.287 15.1753 18.3328C15.2285 18.3607 15.2878 18.3752 15.3478 18.375C15.4165 18.375 15.4839 18.3561 15.5426 18.3204C15.6013 18.2847 15.649 18.2335 15.6806 18.1725ZM32.4713 28.6875C32.5699 28.8583 32.6219 29.052 32.622 29.2493C32.6221 29.4465 32.5704 29.6403 32.472 29.8112C32.3736 29.9821 32.2321 30.1242 32.0615 30.2232C31.8909 30.3221 31.6972 30.3745 31.5 30.375H16.5C16.3028 30.3745 16.1092 30.3221 15.9386 30.2232C15.768 30.1242 15.6264 29.9821 15.528 29.8112C15.4296 29.6403 15.3779 29.4465 15.378 29.2493C15.3782 29.052 15.4302 28.8583 15.5288 28.6875C16.4222 27.1463 16.875 25.0659 16.875 22.5C16.875 20.6103 17.6257 18.7981 18.9619 17.4619C20.2981 16.1257 22.1104 15.375 24 15.375C25.8897 15.375 27.702 16.1257 29.0382 17.4619C30.3744 18.7981 31.125 20.6103 31.125 22.5C31.125 25.065 31.5778 27.1453 32.4713 28.6875ZM31.8225 29.0625C30.8616 27.4069 30.375 25.1991 30.375 22.5C30.375 20.8093 29.7034 19.1877 28.5078 17.9922C27.3123 16.7967 25.6908 16.125 24 16.125C22.3093 16.125 20.6878 16.7967 19.4922 17.9922C18.2967 19.1877 17.625 20.8093 17.625 22.5C17.625 25.2 17.1385 27.4069 16.1775 29.0625C16.1446 29.1195 16.1273 29.1842 16.1273 29.25C16.1273 29.3158 16.1446 29.3805 16.1775 29.4375C16.2094 29.4949 16.2562 29.5426 16.313 29.5756C16.3697 29.6086 16.4344 29.6257 16.5 29.625H31.5C31.5655 29.6255 31.6299 29.6084 31.6865 29.5754C31.7431 29.5424 31.7898 29.4948 31.8216 29.4375C31.8546 29.3806 31.8721 29.316 31.8723 29.2501C31.8725 29.1843 31.8553 29.1196 31.8225 29.0625Z" fill="black"/>
</svg>
