<svg width="24" height="24" viewBox="0 0 24 24" fill="none" xmlns="http://www.w3.org/2000/svg">
<path d="M21.2653 20.7347L16.3247 15.7941C17.7094 14.2708 18.4434 12.2664 18.3699 10.2092C18.2964 8.1519 17.4213 6.20497 15.9314 4.7844C14.4415 3.36383 12.4552 2.58229 10.3967 2.60679C8.33832 2.63129 6.37111 3.45988 4.91548 4.91551C3.45985 6.37114 2.63126 8.33835 2.60676 10.3968C2.58226 12.4552 3.3638 14.4416 4.78437 15.9314C6.20494 17.4213 8.15187 18.2965 10.2091 18.37C12.2664 18.4434 14.2708 17.7094 15.794 16.3247L20.7347 21.2653C20.805 21.3357 20.9005 21.3752 21 21.3752C21.0995 21.3752 21.1949 21.3357 21.2653 21.2653C21.3357 21.195 21.3752 21.0995 21.3752 21C21.3752 20.9005 21.3357 20.8051 21.2653 20.7347ZM3.37498 10.5C3.37498 9.09082 3.79285 7.71327 4.57576 6.54157C5.35866 5.36987 6.47144 4.45664 7.77336 3.91737C9.07528 3.37809 10.5079 3.237 11.89 3.51192C13.2721 3.78684 14.5417 4.46543 15.5381 5.46188C16.5346 6.45832 17.2132 7.72788 17.4881 9.10999C17.763 10.4921 17.6219 11.9247 17.0826 13.2266C16.5433 14.5286 15.6301 15.6413 14.4584 16.4242C13.2867 17.2071 11.9092 17.625 10.5 17.625C8.61092 17.623 6.7998 16.8717 5.46404 15.536C4.12827 14.2002 3.37697 12.3891 3.37498 10.5Z" fill="black"/>
</svg>
