<svg width="38" height="38" viewBox="0 0 38 38" fill="none" xmlns="http://www.w3.org/2000/svg">
<rect width="38" height="38" rx="19" fill="#C7C7C7" fill-opacity="0.16"/>
<path d="M18.375 14.75C18.375 14.6264 18.4117 14.5055 18.4803 14.4028C18.549 14.3 18.6466 14.2199 18.7608 14.1726C18.875 14.1253 19.0007 14.1129 19.1219 14.137C19.2432 14.1611 19.3545 14.2207 19.4419 14.3081C19.5294 14.3955 19.5889 14.5068 19.613 14.6281C19.6371 14.7493 19.6247 14.875 19.5774 14.9892C19.5301 15.1034 19.45 15.201 19.3472 15.2697C19.2445 15.3383 19.1236 15.375 19 15.375C18.8342 15.375 18.6753 15.3092 18.5581 15.1919C18.4408 15.0747 18.375 14.9158 18.375 14.75ZM19 18.375C18.8764 18.375 18.7555 18.4117 18.6528 18.4803C18.55 18.549 18.4699 18.6466 18.4226 18.7608C18.3753 18.875 18.3629 19.0007 18.387 19.1219C18.4111 19.2432 18.4707 19.3545 18.5581 19.4419C18.6455 19.5294 18.7568 19.5889 18.8781 19.613C18.9993 19.6371 19.125 19.6247 19.2392 19.5774C19.3534 19.5301 19.451 19.45 19.5197 19.3472C19.5883 19.2445 19.625 19.1236 19.625 19C19.625 18.8342 19.5592 18.6753 19.4419 18.5581C19.3247 18.4408 19.1658 18.375 19 18.375ZM19 22.625C18.8764 22.625 18.7555 22.6617 18.6528 22.7303C18.55 22.799 18.4699 22.8966 18.4226 23.0108C18.3753 23.125 18.3629 23.2507 18.387 23.3719C18.4111 23.4932 18.4707 23.6045 18.5581 23.6919C18.6455 23.7794 18.7568 23.8389 18.8781 23.863C18.9993 23.8871 19.125 23.8747 19.2392 23.8274C19.3534 23.7801 19.451 23.7 19.5197 23.5972C19.5883 23.4945 19.625 23.3736 19.625 23.25C19.625 23.0842 19.5592 22.9253 19.4419 22.8081C19.3247 22.6908 19.1658 22.625 19 22.625Z" fill="black"/>
</svg>
