<svg width="38" height="38" viewBox="0 0 38 38" fill="none" xmlns="http://www.w3.org/2000/svg">
<rect width="38" height="38" rx="19" fill="#CEFF7D"/>
<path d="M19.0002 10.7415C17.3668 10.7415 15.7701 11.2258 14.412 12.1333C13.0539 13.0407 11.9954 14.3305 11.3703 15.8396C10.7453 17.3486 10.5817 19.0091 10.9004 20.6111C11.219 22.2131 12.0056 23.6847 13.1606 24.8396C14.3155 25.9946 15.7871 26.7812 17.3891 27.0998C18.9911 27.4185 20.6516 27.2549 22.1606 26.6299C23.6697 26.0048 24.9595 24.9463 25.8669 23.5882C26.7744 22.2301 27.2587 20.6334 27.2587 19C27.2562 16.8105 26.3853 14.7114 24.837 13.1632C23.2888 11.6149 21.1897 10.744 19.0002 10.7415ZM19.0002 26.2869C17.559 26.2869 16.1502 25.8595 14.9518 25.0588C13.7535 24.2581 12.8195 23.1201 12.268 21.7886C11.7164 20.4571 11.5721 18.9919 11.8533 17.5784C12.1345 16.1648 12.8285 14.8664 13.8476 13.8473C14.8667 12.8282 16.1651 12.1342 17.5786 11.8531C18.9921 11.5719 20.4573 11.7162 21.7888 12.2677C23.1203 12.8193 24.2584 13.7532 25.0591 14.9516C25.8598 16.1499 26.2872 17.5588 26.2872 19C26.285 20.9319 25.5166 22.7842 24.1505 24.1503C22.7844 25.5164 20.9322 26.2848 19.0002 26.2869ZM19.0002 14.304C17.7552 14.3055 16.5616 14.8007 15.6813 15.681C14.8009 16.5614 14.3057 17.755 14.3042 19C14.3042 19.1288 14.253 19.2524 14.1619 19.3435C14.0708 19.4346 13.9472 19.4858 13.8184 19.4858C13.6896 19.4858 13.566 19.4346 13.4749 19.3435C13.3838 19.2524 13.3326 19.1288 13.3326 19C13.3343 17.4974 13.932 16.0568 14.9945 14.9943C16.057 13.9318 17.4976 13.3341 19.0002 13.3324C19.1291 13.3324 19.2526 13.3835 19.3437 13.4747C19.4348 13.5658 19.486 13.6893 19.486 13.8182C19.486 13.947 19.4348 14.0706 19.3437 14.1617C19.2526 14.2528 19.1291 14.304 19.0002 14.304ZM24.6678 19C24.6661 20.5026 24.0685 21.9432 23.0059 23.0057C21.9434 24.0682 20.5028 24.6659 19.0002 24.6676C18.8714 24.6676 18.7478 24.6164 18.6567 24.5253C18.5656 24.4342 18.5144 24.3106 18.5144 24.1818C18.5144 24.053 18.5656 23.9294 18.6567 23.8383C18.7478 23.7472 18.8714 23.696 19.0002 23.696C20.2452 23.6945 21.4388 23.1993 22.3192 22.3189C23.1995 21.4386 23.6947 20.245 23.6962 19C23.6962 18.8711 23.7474 18.7476 23.8385 18.6565C23.9296 18.5654 24.0532 18.5142 24.182 18.5142C24.3109 18.5142 24.4344 18.5654 24.5256 18.6565C24.6167 18.7476 24.6678 18.8711 24.6678 19ZM21.4292 19C21.4292 18.5196 21.2867 18.05 21.0198 17.6505C20.7529 17.2511 20.3736 16.9397 19.9298 16.7559C19.4859 16.5721 18.9975 16.524 18.5264 16.6177C18.0552 16.7114 17.6224 16.9427 17.2827 17.2824C16.943 17.6221 16.7116 18.0549 16.6179 18.5261C16.5242 18.9973 16.5723 19.4857 16.7561 19.9295C16.94 20.3733 17.2513 20.7527 17.6508 21.0196C18.0502 21.2865 18.5198 21.429 19.0002 21.429C19.6444 21.429 20.2623 21.173 20.7178 20.7175C21.1733 20.262 21.4292 19.6442 21.4292 19ZM17.5428 19C17.5428 18.7117 17.6283 18.43 17.7885 18.1903C17.9486 17.9506 18.1762 17.7638 18.4425 17.6535C18.7088 17.5432 19.0018 17.5144 19.2845 17.5706C19.5673 17.6268 19.8269 17.7656 20.0308 17.9695C20.2346 18.1733 20.3734 18.433 20.4296 18.7157C20.4858 18.9984 20.457 19.2914 20.3467 19.5577C20.2364 19.824 20.0496 20.0516 19.8099 20.2118C19.5702 20.3719 19.2885 20.4574 19.0002 20.4574C18.6137 20.4574 18.243 20.3038 17.9697 20.0305C17.6964 19.7572 17.5428 19.3865 17.5428 19Z" fill="black"/>
</svg>
