<svg width="38" height="38" viewBox="0 0 38 38" fill="none" xmlns="http://www.w3.org/2000/svg">
<rect width="38" height="38" rx="19" fill="#E5FDFF"/>
<path d="M22.8865 10.0938H15.1138C14.6414 10.0938 14.1883 10.2814 13.8542 10.6155C13.5202 10.9495 13.3325 11.4026 13.3325 11.875V26.125C13.3325 26.5974 13.5202 27.0505 13.8542 27.3845C14.1883 27.7186 14.6414 27.9063 15.1138 27.9063H22.8865C23.3589 27.9063 23.812 27.7186 24.146 27.3845C24.4801 27.0505 24.6677 26.5974 24.6677 26.125V11.875C24.6677 11.4026 24.4801 10.9495 24.146 10.6155C23.812 10.2814 23.3589 10.0938 22.8865 10.0938ZM23.6962 26.125C23.6962 26.3397 23.6109 26.5457 23.459 26.6975C23.3072 26.8494 23.1012 26.9347 22.8865 26.9347H15.1138C14.899 26.9347 14.6931 26.8494 14.5413 26.6975C14.3894 26.5457 14.3041 26.3397 14.3041 26.125V11.875C14.3041 11.6603 14.3894 11.4543 14.5413 11.3025C14.6931 11.1506 14.899 11.0653 15.1138 11.0653H22.8865C23.1012 11.0653 23.3072 11.1506 23.459 11.3025C23.6109 11.4543 23.6962 11.6603 23.6962 11.875V26.125ZM22.0768 13.1705C22.0768 13.2993 22.0257 13.4229 21.9346 13.514C21.8434 13.6051 21.7199 13.6563 21.591 13.6563H16.4092C16.2804 13.6563 16.1568 13.6051 16.0657 13.514C15.9746 13.4229 15.9234 13.2993 15.9234 13.1705C15.9234 13.0416 15.9746 12.9181 16.0657 12.8269C16.1568 12.7358 16.2804 12.6847 16.4092 12.6847H21.591C21.7199 12.6847 21.8434 12.7358 21.9346 12.8269C22.0257 12.9181 22.0768 13.0416 22.0768 13.1705Z" fill="black"/>
</svg>
