<svg width="38" height="38" viewBox="0 0 38 38" fill="none" xmlns="http://www.w3.org/2000/svg">
<rect width="38" height="38" rx="19" fill="#DEFFDB"/>
<g clip-path="url(#clip0_234_1090)">
<path d="M28.6059 13.7372L24.4143 11.4491C24.3432 11.4098 24.2632 11.3892 24.182 11.3892H21.591C21.4622 11.3892 21.3386 11.4404 21.2475 11.5315C21.1564 11.6226 21.1052 11.7461 21.1052 11.875C21.1052 12.4333 20.8835 12.9687 20.4887 13.3635C20.0939 13.7583 19.5584 13.9801 19.0001 13.9801C18.4418 13.9801 17.9064 13.7583 17.5116 13.3635C17.1168 12.9687 16.895 12.4333 16.895 11.875C16.895 11.7461 16.8438 11.6226 16.7527 11.5315C16.6616 11.4404 16.5381 11.3892 16.4092 11.3892H13.8183C13.7368 11.389 13.6565 11.4097 13.5851 11.4491L9.39434 13.7372C9.1336 13.8748 8.93798 14.1101 8.85028 14.3915C8.76258 14.673 8.78993 14.9778 8.92635 15.2391L10.4874 18.2195C10.5872 18.4076 10.7366 18.5647 10.9195 18.6737C11.1024 18.7828 11.3116 18.8396 11.5245 18.8381H13.3325V25.4773C13.3325 25.7779 13.4519 26.0662 13.6645 26.2788C13.8771 26.4914 14.1654 26.6108 14.466 26.6108H23.5342C23.8349 26.6108 24.1232 26.4914 24.3357 26.2788C24.5483 26.0662 24.6677 25.7779 24.6677 25.4773V18.8381H26.4765C26.6894 18.8396 26.8987 18.7828 27.0816 18.6737C27.2644 18.5647 27.4139 18.4076 27.5137 18.2195L29.0747 15.2391C29.2111 14.9777 29.2383 14.6728 29.1505 14.3914C29.0626 14.1099 28.8668 13.8747 28.6059 13.7372ZM11.5221 17.8665C11.4866 17.8677 11.4514 17.8592 11.4203 17.842C11.3892 17.8247 11.3634 17.7993 11.3456 17.7685L9.78702 14.7898C9.77823 14.7719 9.77315 14.7525 9.77208 14.7326C9.771 14.7128 9.77396 14.6929 9.78077 14.6742C9.78757 14.6555 9.79809 14.6384 9.81169 14.6239C9.82529 14.6094 9.84169 14.5978 9.85989 14.5898L13.3325 12.6936V17.8665H11.5221ZM23.6962 25.4773C23.6962 25.5202 23.6791 25.5614 23.6487 25.5918C23.6184 25.6221 23.5772 25.6392 23.5342 25.6392H14.466C14.4231 25.6392 14.3819 25.6221 14.3515 25.5918C14.3212 25.5614 14.3041 25.5202 14.3041 25.4773V12.3608H15.9623C16.0803 13.0809 16.4504 13.7357 17.0066 14.2082C17.5628 14.6806 18.2688 14.94 18.9985 14.94C19.7283 14.94 20.4343 14.6806 20.9904 14.2082C21.5466 13.7357 21.9167 13.0809 22.0347 12.3608H23.6962V25.4773ZM28.2141 14.7898L26.653 17.7693C26.6353 17.8001 26.6095 17.8255 26.5784 17.8428C26.5473 17.86 26.5121 17.8685 26.4765 17.8673H24.6677V12.6936L28.1412 14.5882C28.1594 14.5963 28.1759 14.6081 28.1895 14.6228C28.2031 14.6374 28.2135 14.6547 28.2203 14.6736C28.227 14.6924 28.2299 14.7124 28.2286 14.7324C28.2274 14.7524 28.2222 14.7719 28.2132 14.7898H28.2141Z" fill="black"/>
</g>
<defs>
<clipPath id="clip0_234_1090">
<rect width="20.7273" height="20.7273" fill="white" transform="translate(8.63647 8.63635)"/>
</clipPath>
</defs>
</svg>
