<svg width="38" height="38" viewBox="0 0 38 38" fill="none" xmlns="http://www.w3.org/2000/svg">
<rect x="0.5" y="0.5" width="37" height="37" rx="18.5" stroke="black"/>
<path d="M16.2472 26.125C16.2472 26.3492 16.1807 26.5684 16.0562 26.7548C15.9316 26.9412 15.7546 27.0865 15.5475 27.1722C15.3403 27.258 15.1124 27.2805 14.8925 27.2368C14.6727 27.193 14.4707 27.0851 14.3122 26.9265C14.1536 26.768 14.0457 26.566 14.0019 26.3461C13.9582 26.1263 13.9806 25.8984 14.0664 25.6912C14.1522 25.4841 14.2975 25.3071 14.4839 25.1825C14.6703 25.058 14.8895 24.9915 15.1137 24.9915C15.4143 24.9915 15.7026 25.1109 15.9152 25.3235C16.1278 25.5361 16.2472 25.8244 16.2472 26.125ZM23.5341 24.9915C23.3099 24.9915 23.0908 25.058 22.9044 25.1825C22.718 25.3071 22.5727 25.4841 22.4869 25.6912C22.4011 25.8984 22.3787 26.1263 22.4224 26.3461C22.4661 26.566 22.5741 26.768 22.7326 26.9265C22.8911 27.0851 23.0931 27.193 23.313 27.2368C23.5329 27.2805 23.7608 27.258 23.9679 27.1722C24.175 27.0865 24.3521 26.9412 24.4766 26.7548C24.6012 26.5684 24.6677 26.3492 24.6677 26.125C24.6677 25.8244 24.5482 25.5361 24.3357 25.3235C24.1231 25.1109 23.8348 24.9915 23.5341 24.9915ZM27.2367 14.6084L24.9276 22.1148C24.8169 22.4792 24.5918 22.7984 24.2855 23.0248C23.9792 23.2513 23.6082 23.3731 23.2273 23.3722H15.4432C15.0559 23.3707 14.6795 23.2437 14.3706 23.0101C14.0617 22.7765 13.8369 22.449 13.73 22.0767L10.8022 11.8305C10.7925 11.7966 10.772 11.7667 10.7438 11.7455C10.7156 11.7244 10.6813 11.713 10.646 11.7131H9.28414C9.15529 11.7131 9.03173 11.6619 8.94063 11.5708C8.84952 11.4797 8.79834 11.3561 8.79834 11.2273C8.79834 11.0984 8.84952 10.9749 8.94063 10.8838C9.03173 10.7927 9.15529 10.7415 9.28414 10.7415H10.646C10.8921 10.7421 11.1313 10.8226 11.3278 10.9708C11.5243 11.119 11.6675 11.3269 11.7358 11.5633L12.4264 13.9801H26.7728C26.8487 13.9802 26.9236 13.9981 26.9914 14.0323C27.0592 14.0666 27.118 14.1163 27.1631 14.1773C27.2082 14.2384 27.2384 14.3093 27.2511 14.3841C27.2639 14.459 27.259 14.5358 27.2367 14.6084ZM26.1153 14.9517H12.7041L14.6643 21.8136C14.7127 21.9828 14.8149 22.1316 14.9555 22.2375C15.096 22.3434 15.2672 22.4007 15.4432 22.4006H23.2248C23.398 22.4006 23.5667 22.3451 23.706 22.2422C23.8453 22.1393 23.948 21.9945 23.9989 21.829L26.1153 14.9517Z" fill="black"/>
</svg>
