<svg width="38" height="38" viewBox="0 0 38 38" fill="none" xmlns="http://www.w3.org/2000/svg">
<path d="M19.0002 10.7415C17.3668 10.7415 15.7701 11.2258 14.412 12.1333C13.0539 13.0407 11.9954 14.3305 11.3703 15.8396C10.7453 17.3486 10.5817 19.0091 10.9004 20.6111C11.219 22.2131 12.0056 23.6847 13.1606 24.8396C14.3155 25.9946 15.7871 26.7812 17.3891 27.0998C18.9911 27.4185 20.6516 27.2549 22.1606 26.6299C23.6697 26.0048 24.9595 24.9463 25.8669 23.5882C26.7744 22.2301 27.2587 20.6334 27.2587 19C27.2562 16.8105 26.3853 14.7114 24.837 13.1632C23.2888 11.6149 21.1897 10.744 19.0002 10.7415ZM25.7504 21.7439C24.5955 22.5469 23.233 22.9984 21.8272 23.0441C20.4214 23.0898 19.0324 22.7277 17.8278 22.0014L19.2804 19.4858H26.271C26.2197 20.2615 26.0439 21.024 25.7504 21.7439ZM15.7859 12.4612C16.4828 12.1175 17.2305 11.8882 18.0003 11.7819C19.2733 12.3804 20.3458 13.3345 21.0884 14.5291C21.831 15.7238 22.212 17.1078 22.1854 18.5142H19.2804L15.7859 12.4612ZM26.271 18.5142H23.157C23.1785 17.2077 22.89 15.9147 22.3153 14.7412C21.7405 13.5677 20.8958 12.5472 19.8504 11.7632C21.5395 11.964 23.1055 12.7485 24.2778 13.9811C25.4501 15.2137 26.1551 16.8171 26.271 18.5142ZM14.9455 12.9486L16.5008 15.6423C15.3587 16.2772 14.3833 17.1736 13.6545 18.2581C12.9256 19.3426 12.464 20.5843 12.3076 21.8816C11.6343 20.319 11.5295 18.5699 12.0113 16.9381C12.4932 15.3063 13.5313 13.8948 14.9455 12.9486ZM13.2516 23.4685C13.1348 22.0678 13.4256 20.6633 14.0888 19.4241C14.7521 18.1849 15.7596 17.164 16.9898 16.4844L18.4391 19L14.9455 25.0514C14.3005 24.6169 13.7288 24.0826 13.2516 23.4685ZM19.0002 26.2869C17.8855 26.2881 16.7855 26.0321 15.7859 25.5388L17.342 22.8434C18.4622 23.5148 19.7254 23.9114 21.0283 24.0006C22.3312 24.0898 23.6367 23.8692 24.8379 23.3568C24.1603 24.2661 23.2797 25.0046 22.2661 25.5133C21.2526 26.022 20.1343 26.2869 19.0002 26.2869Z" fill="black"/>
</svg>
