<svg width="38" height="38" viewBox="0 0 38 38" fill="none" xmlns="http://www.w3.org/2000/svg">
<rect x="0.5" y="0.5" width="37" height="37" rx="18.5" stroke="black"/>
<path d="M25.9502 18.2414C25.9321 18.1636 25.895 18.0915 25.8423 18.0315C25.7896 17.9715 25.723 17.9254 25.6482 17.8972L20.8526 16.099L22.0671 10.0266C22.0878 9.92291 22.0742 9.81534 22.0282 9.72015C21.9823 9.62497 21.9066 9.54736 21.8125 9.49911C21.7185 9.45086 21.6113 9.43459 21.5072 9.45277C21.403 9.47095 21.3077 9.52259 21.2356 9.59986L12.1674 19.3158C12.1129 19.3742 12.0737 19.4451 12.0532 19.5222C12.0327 19.5994 12.0315 19.6804 12.0497 19.7582C12.068 19.8359 12.1051 19.9079 12.1578 19.9679C12.2106 20.0279 12.2772 20.0739 12.352 20.102L17.1476 21.9002L15.9331 27.9726C15.9123 28.0763 15.9258 28.184 15.9717 28.2792C16.0176 28.3745 16.0933 28.4522 16.1874 28.5005C16.2561 28.5355 16.3321 28.5538 16.4092 28.554C16.4759 28.554 16.5419 28.5403 16.603 28.5136C16.6642 28.487 16.7192 28.4481 16.7646 28.3993L25.8328 18.6834C25.8872 18.625 25.9263 18.5542 25.9468 18.4771C25.9673 18.4 25.9685 18.319 25.9502 18.2414ZM17.2189 26.4861L18.1783 21.6865C18.2011 21.5734 18.1829 21.4559 18.1269 21.355C18.071 21.2542 17.981 21.1765 17.8731 21.1359L13.3714 19.4477L20.7765 11.5131L19.8195 16.3136C19.7967 16.4266 19.8149 16.5441 19.8709 16.645C19.9268 16.7458 20.0168 16.8235 20.1247 16.8641L24.6264 18.5523L17.2189 26.4861Z" fill="black"/>
</svg>
