<svg width="17" height="21" viewBox="0 0 17 21" fill="none" xmlns="http://www.w3.org/2000/svg">
<path d="M16.3916 7.09047C15.7116 7.5066 15.1484 8.08846 14.7545 8.78158C14.3607 9.47471 14.1492 10.2564 14.1398 11.0536C14.1425 11.9507 14.4083 12.8273 14.9043 13.5749C15.4003 14.3225 16.1047 14.9081 16.9302 15.2593C16.6048 16.3095 16.1231 17.3046 15.5013 18.2114C14.6117 19.492 13.6815 20.7726 12.2662 20.7726C10.8508 20.7726 10.4868 19.9503 8.8557 19.9503C7.2649 19.9503 6.69894 20.7996 5.40524 20.7996C4.11154 20.7996 3.20826 19.6133 2.17032 18.1575C0.799133 16.1181 0.0455507 13.7263 0 11.2692C0 7.22502 2.62862 5.08192 5.21669 5.08192C6.59172 5.08192 7.73732 5.98509 8.59994 5.98509C9.42222 5.98509 10.7028 5.02804 12.2665 5.02804C13.0705 5.00723 13.8672 5.18446 14.5866 5.54411C15.306 5.90377 15.9258 6.43482 16.3916 7.09047ZM8.70804 4.79883C8.61306 4.79854 8.51829 4.78954 8.42495 4.77194C8.39859 4.64781 8.38504 4.5213 8.38451 4.39441C8.4295 3.35114 8.83438 2.35564 9.53033 1.57713C10.3114 0.679903 11.4063 0.115605 12.5903 0C12.6184 0.137479 12.6319 0.277542 12.6307 0.417864C12.605 1.482 12.2148 2.50506 11.5253 3.31603C11.1807 3.74123 10.7533 4.09194 10.269 4.34685C9.7847 4.60175 9.25362 4.75553 8.70804 4.79883Z" fill="black"/>
</svg>
