<svg width="38" height="38" viewBox="0 0 38 38" fill="none" xmlns="http://www.w3.org/2000/svg">
<rect x="0.5" y="0.5" width="37" height="37" rx="18.5" stroke="black"/>
<path d="M27.9063 13.1705V18.3523C27.9063 18.4811 27.8552 18.6047 27.7641 18.6958C27.673 18.7869 27.5494 18.8381 27.4205 18.8381C27.2917 18.8381 27.1681 18.7869 27.077 18.6958C26.9859 18.6047 26.9347 18.4811 26.9347 18.3523V14.3428L19.9911 21.2865C19.9 21.3775 19.7766 21.4286 19.6478 21.4286C19.5191 21.4286 19.3956 21.3775 19.3045 21.2865L16.4092 18.3919L10.9229 23.8774C10.8308 23.9632 10.709 24.0099 10.5832 24.0077C10.4573 24.0055 10.3372 23.9545 10.2482 23.8655C10.1592 23.7765 10.1083 23.6564 10.106 23.5305C10.1038 23.4047 10.1505 23.2829 10.2363 23.1908L16.0659 17.3613C16.157 17.2703 16.2804 17.2192 16.4092 17.2192C16.5379 17.2192 16.6614 17.2703 16.7525 17.3613L19.6478 20.2558L26.2482 13.6563H22.2387C22.1099 13.6563 21.9863 13.6051 21.8952 13.514C21.8041 13.4229 21.7529 13.2993 21.7529 13.1705C21.7529 13.0416 21.8041 12.9181 21.8952 12.8269C21.9863 12.7358 22.1099 12.6847 22.2387 12.6847H27.4205C27.5494 12.6847 27.673 12.7358 27.7641 12.8269C27.8552 12.9181 27.9063 13.0416 27.9063 13.1705Z" fill="black"/>
</svg>
