<svg width="20" height="20" viewBox="0 0 20 20" fill="none" xmlns="http://www.w3.org/2000/svg">
<path d="M10 0C15.5228 0 20 4.47722 20 10C20 15.1121 16.1635 19.3282 11.2119 19.9277V13.0557H13.916L14.4766 10H11.208V8.91895C11.2081 7.30305 11.8406 6.68359 13.4805 6.68359C13.9877 6.6836 14.3996 6.6949 14.6357 6.71875V3.95117C14.1872 3.82731 13.096 3.70312 12.4639 3.70312C9.1239 3.70314 7.58398 5.27972 7.58398 8.68359V10H5.52051V13.0557H7.58398V19.7061C3.2281 18.6253 0 14.6898 0 10C0 4.47722 4.47722 0 10 0Z" fill="#0866FF"/>
</svg>
