<svg width="12" height="14" viewBox="0 0 12 14" fill="none" xmlns="http://www.w3.org/2000/svg">
<path d="M10.875 4.5H8.75V2.875C8.75 2.1125 8.4471 1.38124 7.90793 0.842068C7.36877 0.302901 6.6375 0 5.875 0C5.1125 0 4.38124 0.302901 3.84207 0.842068C3.3029 1.38124 3 2.1125 3 2.875V4.5H0.875C0.642936 4.5 0.420376 4.59219 0.256282 4.75628C0.0921873 4.92038 0 5.14294 0 5.375V12.375C0 12.6071 0.0921873 12.8296 0.256282 12.9937C0.420376 13.1578 0.642936 13.25 0.875 13.25H10.875C11.1071 13.25 11.3296 13.1578 11.4937 12.9937C11.6578 12.8296 11.75 12.6071 11.75 12.375V5.375C11.75 5.14294 11.6578 4.92038 11.4937 4.75628C11.3296 4.59219 11.1071 4.5 10.875 4.5ZM3.75 2.875C3.75 2.31141 3.97388 1.77091 4.3724 1.3724C4.77091 0.973883 5.31141 0.75 5.875 0.75C6.43859 0.75 6.97909 0.973883 7.3776 1.3724C7.77612 1.77091 8 2.31141 8 2.875V4.5H3.75V2.875ZM11 12.375C11 12.4082 10.9868 12.4399 10.9634 12.4634C10.9399 12.4868 10.9082 12.5 10.875 12.5H0.875C0.841848 12.5 0.810054 12.4868 0.786612 12.4634C0.76317 12.4399 0.75 12.4082 0.75 12.375V5.375C0.75 5.34185 0.76317 5.31005 0.786612 5.28661C0.810054 5.26317 0.841848 5.25 0.875 5.25H10.875C10.9082 5.25 10.9399 5.26317 10.9634 5.28661C10.9868 5.31005 11 5.34185 11 5.375V12.375ZM6.5 8.875C6.5 8.99861 6.46334 9.11945 6.39467 9.22223C6.32599 9.32501 6.22838 9.40512 6.11418 9.45243C5.99997 9.49973 5.87431 9.51211 5.75307 9.48799C5.63183 9.46387 5.52047 9.40435 5.43306 9.31694C5.34565 9.22953 5.28612 9.11817 5.26201 8.99693C5.23789 8.87569 5.25027 8.75003 5.29758 8.63582C5.34488 8.52162 5.42499 8.42401 5.52777 8.35533C5.63055 8.28666 5.75139 8.25 5.875 8.25C6.04076 8.25 6.19973 8.31585 6.31694 8.43306C6.43415 8.55027 6.5 8.70924 6.5 8.875Z" fill="black"/>
</svg>
