<svg width="13" height="13" viewBox="0 0 13 13" fill="none" xmlns="http://www.w3.org/2000/svg">
<path d="M6.375 0C5.11415 0 3.88161 0.373887 2.83324 1.07438C1.78488 1.77488 0.967779 2.77051 0.485271 3.93539C0.00276208 5.10027 -0.123484 6.38207 0.122497 7.6187C0.368478 8.85533 0.975637 9.99125 1.8672 10.8828C2.75876 11.7744 3.89467 12.3815 5.1313 12.6275C6.36793 12.8735 7.64973 12.7472 8.81461 12.2647C9.97949 11.7822 10.9751 10.9651 11.6756 9.91676C12.3761 8.8684 12.75 7.63586 12.75 6.375C12.748 4.68485 12.0757 3.0645 10.8806 1.86939C9.6855 0.674272 8.06515 0.00198491 6.375 0ZM2.84 10.75C3.20675 10.1402 3.72502 9.63558 4.34444 9.28528C4.96387 8.93498 5.66339 8.75089 6.375 8.75089C7.08662 8.75089 7.78613 8.93498 8.40556 9.28528C9.02499 9.63558 9.54326 10.1402 9.91 10.75C8.91023 11.5607 7.66217 12.0031 6.375 12.0031C5.08783 12.0031 3.83978 11.5607 2.84 10.75ZM4.25 5.875C4.25 5.45471 4.37463 5.04387 4.60813 4.69441C4.84163 4.34496 5.17351 4.07259 5.5618 3.91176C5.95009 3.75092 6.37736 3.70884 6.78957 3.79083C7.20178 3.87282 7.58042 4.07521 7.8776 4.3724C8.17479 4.66958 8.37718 5.04822 8.45917 5.46043C8.54116 5.87264 8.49908 6.29991 8.33825 6.6882C8.17741 7.07649 7.90504 7.40838 7.55559 7.64187C7.20614 7.87537 6.79529 8 6.375 8C5.81142 8 5.27092 7.77612 4.8724 7.3776C4.47389 6.97909 4.25 6.43859 4.25 5.875ZM10.4694 10.2275C9.88017 9.31134 8.99946 8.62042 7.96938 8.26625C8.48302 7.92413 8.87295 7.42582 9.0815 6.84497C9.29005 6.26413 9.30616 5.63159 9.12744 5.04088C8.94873 4.45018 8.58468 3.93266 8.08911 3.56484C7.59355 3.19702 6.99278 2.99843 6.37563 2.99843C5.75848 2.99843 5.15771 3.19702 4.66214 3.56484C4.16658 3.93266 3.80253 4.45018 3.62381 5.04088C3.4451 5.63159 3.46121 6.26413 3.66976 6.84497C3.87831 7.42582 4.26823 7.92413 4.78188 8.26625C3.75179 8.62042 2.87108 9.31134 2.28188 10.2275C1.52865 9.42818 1.02589 8.42583 0.835653 7.34412C0.645412 6.26242 0.776005 5.14869 1.21132 4.14033C1.64663 3.13198 2.36762 2.27312 3.28533 1.66973C4.20304 1.06633 5.27732 0.744802 6.37563 0.744802C7.47393 0.744802 8.54821 1.06633 9.46592 1.66973C10.3836 2.27312 11.1046 3.13198 11.5399 4.14033C11.9753 5.14869 12.1058 6.26242 11.9156 7.34412C11.7254 8.42583 11.2226 9.42818 10.4694 10.2275Z" fill="black"/>
</svg>
